<svg width="100" height="100" viewBox="0 0 100 100" fill="none" xmlns="http://www.w3.org/2000/svg">
<rect width="100" height="100" fill="black"/>
<path d="M64.464 34.704H46.8C44.944 37.84 42.768 40.72 40.272 43.408C47.952 45.52 52.112 48.72 52.112 52.624C52.112 54.928 50.576 56.592 48.592 56.592C47.056 56.592 46.16 55.888 45.456 54.096C43.856 49.744 42.512 47.504 39.504 44.24C35.472 48.336 30.736 51.728 24.848 54.864C24.592 54.992 24.016 54.416 24.272 54.224C31.632 48.272 38.096 39.504 41.872 30.544C43.152 27.472 44.176 24.4 44.752 21.456C51.344 23.12 53.84 24.016 53.84 24.976C53.84 25.872 53.136 26.32 50.96 26.768C49.872 29.072 48.784 31.248 47.696 33.232H63.76C66.64 30.224 67.152 29.84 67.664 29.84C68.304 29.84 68.816 30.224 71.888 32.72C73.296 33.872 73.68 34.32 73.68 34.832C73.68 35.728 73.04 36.304 71.184 37.136C62.672 59.472 48.592 72.144 24.976 78.8C24.656 78.864 24.272 78.032 24.592 77.904C45.264 68.048 57.104 55.248 64.464 34.704Z" fill="white"/>
</svg>
